<svg xmlns="http://www.w3.org/2000/svg" version="1.1" xmlns:xlink="http://www.w3.org/1999/xlink" xmlns:svgjs="http://svgjs.dev/svgjs" viewBox="0 0 395.52 375.5506306367493" height="1000" width="1000">
    <g transform="matrix(1,0,0,1,84.38216450110461,82)">
        <svg viewBox="0 0 226.75567099779076 226.75567099779076" height="226.75567099779076" width="226.75567099779076">
            <g id="icon-0">
                <svg viewBox="0 0 226.75567099779076 226.75567099779076" height="226.75567099779076" width="226.75567099779076">
                    <g>
                        <path d="M0 113.378c0-62.617 50.761-113.378 113.378-113.378 62.617 0 113.378 50.761 113.378 113.378 0 62.617-50.761 113.378-113.378 113.378-62.617 0-113.378-50.761-113.378-113.378zM113.378 217.641c57.583 0 104.263-46.68 104.263-104.263 0-57.583-46.68-104.263-104.263-104.263-57.583 0-104.263 46.68-104.263 104.263 0 57.583 46.68 104.263 104.263 104.263z" data-fill-palette-color="accent" fill="#e8772e" stroke="transparent"></path>
                        <ellipse rx="112.24405714390643" ry="112.24405714390643" cx="113.37783549889538" cy="113.37783549889538" fill="#e8772e" stroke="transparent" stroke-width="0" fill-opacity="1" data-fill-palette-color="accent"></ellipse>
                    </g>
                    <g transform="matrix(1,0,0,1,68.86100451684021,48.29474346028155)">
                        <svg viewBox="0 0 89.03366196411034 130.16618407722765" height="130.16618407722765" width="89.03366196411034">
                            <g>
                                <svg xmlns="http://www.w3.org/2000/svg" xmlns:xlink="http://www.w3.org/1999/xlink" version="1.1" x="0" y="0" viewBox="14.899999618530273 7 34.19999694824219 50" enable-background="new 0 0 64 64" xml:space="preserve" height="130.16618407722765" width="89.03366196411034" class="icon-s-0" data-fill-palette-color="quaternary" id="s-0">
                                    <g fill="#ffffff" data-fill-palette-color="quaternary">
                                        <polygon points="46.2,31.6 49.1,29.1 46.7,25.9 48.4,22.3 44.7,20.5 44.8,15.9 44.7,16.3 46.2,7 40,7 41.6,16.6 41.4,17.4    37.7,9.8 33.6,12.7 38.7,17.8 40.9,21.2 38.3,23.8 39.7,27.2 36,28.2 36.2,31.8 32.7,31.7 32,35.2 28.6,34.2 26.3,38.1 21.9,37.7    20.2,41.7 15.8,42.8 16.8,47.6 14.9,52.2 19.6,53.6 23.2,57 26.3,54.2 30,55.9 32.4,52.5 36.4,53.4 38.1,49.2 42.4,47.8 42,43.3    45.8,40.8 44.7,37.2 47.9,35.1  " fill="#ffffff" data-fill-palette-color="quaternary"></polygon>
                                    </g>
                                </svg>
                            </g>
                        </svg>
                    </g>
                </svg>
            </g>
        </svg>
    </g>
</svg>