<svg xmlns="http://www.w3.org/2000/svg" version="1.1" xmlns:xlink="http://www.w3.org/1999/xlink" xmlns:svgjs="http://svgjs.dev/svgjs" width="1000" height="950" viewBox="0 0 1000 950"><g transform="matrix(1,0,0,1,0.6625166286891613,0.38461840198124264)"><svg viewBox="0 0 260 247" data-background-color="#ffffff" preserveAspectRatio="xMidYMid meet" height="950" width="1000" xmlns="http://www.w3.org/2000/svg" xmlns:xlink="http://www.w3.org/1999/xlink"><g id="tight-bounds" transform="matrix(1,0,0,1,-0.17225432345918534,-0.1000007845151174)"><svg viewBox="0 0 260.3445075680629 247.2" height="247.2" width="260.3445075680629"><g><svg viewBox="0 0 395.52 375.5506306367493" height="247.2" width="260.3445075680629"><g transform="matrix(1,0,0,1,0,274.477535169054)"><svg viewBox="0 0 395.52 101.07309546769527" height="101.07309546769527" width="395.52"><g id="textblocktransform"><svg viewBox="0 0 395.52 101.07309546769527" height="101.07309546769527" width="395.52" id="textblock"><g><svg viewBox="0 0 395.52 101.07309546769527" height="101.07309546769527" width="395.52"><g transform="matrix(1,0,0,1,0,0)"><svg width="395.52" viewBox="-0.7300000190734863 -37.11000061035156 151.88999938964844 38.81999969482422" height="101.07309546769527" data-palette-color="#ba3b0a"><path d="M22.9-34.91L22.9-34.91Q22.8-34.72 22.83-34.52 22.85-34.33 22.85-34.08L22.85-34.08Q22.75-33.5 22.85-33.5 22.95-33.5 22.95-33.4L22.95-33.4 22.61-32.91Q22.61-32.62 22.49-32.37 22.36-32.13 22.41-31.79L22.41-31.79Q22.27-31.54 22.14-31.3 22.02-31.05 21.78-30.81L21.78-30.81 21.14-30.81Q20.61-30.81 20-30.74 19.38-30.66 18.8-30.66L18.8-30.66Q18.7-30.66 18.55-30.69 18.41-30.71 18.26-30.71L18.26-30.71Q18.16-30.71 18.02-30.69 17.87-30.66 17.68-30.66L17.68-30.66Q16.94-30.66 16.24-30.74 15.53-30.81 14.75-30.81L14.75-30.81Q14.55-30.81 14.36-30.81 14.16-30.81 13.92-30.76L13.92-30.76Q13.87-29.93 13.84-29.08 13.82-28.22 13.82-27.34L13.82-27.34Q13.82-27.1 13.77-26.83 13.72-26.56 13.72-26.32L13.72-26.32Q13.67-25.68 13.65-25.1 13.62-24.51 13.62-23.88L13.62-23.88Q13.62-22.51 13.65-21.14 13.67-19.78 13.72-18.36L13.72-18.36Q13.77-17.63 13.82-16.94 13.87-16.26 13.87-15.53L13.87-15.53Q13.87-13.87 13.82-12.23 13.77-10.6 13.77-8.94L13.77-8.94Q13.77-8.4 13.72-7.93 13.67-7.47 13.67-6.93L13.67-6.93Q13.67-5.81 13.72-4.69 13.77-3.56 13.77-2.44L13.77-2.44Q13.77-1.9 13.75-1.37 13.72-0.83 13.72-0.29L13.72-0.29Q13.48 0.1 13.38 0.39 13.28 0.68 12.79 0.68L12.79 0.68Q12.45 0.59 12.48 0.46 12.5 0.34 12.4 0.24L12.4 0.24Q11.96 0.2 11.74 0.32 11.52 0.44 11.23 0.54L11.23 0.54Q11.08 0.49 10.91 0.49 10.74 0.49 10.6 0.49L10.6 0.49Q10.5 0.49 10.4 0.56 10.3 0.63 9.96 0.63L9.96 0.63Q9.67 0.68 9.62 0.54 9.57 0.39 9.33 0.39L9.33 0.39Q9.08 0.54 8.76 0.61 8.45 0.68 8.15 0.68L8.15 0.68Q7.86 0.49 7.89 0.32 7.91 0.15 7.81-0.05L7.81-0.05Q7.76-0.15 7.64-0.32 7.52-0.49 7.42-0.59L7.42-0.59Q7.52-1.27 7.57-1.81 7.62-2.34 7.62-2.98L7.62-2.98Q7.62-4.25 7.52-5.47 7.42-6.69 7.42-7.96L7.42-7.96Q7.42-8.35 7.52-8.79 7.62-9.23 7.62-9.72L7.62-9.72Q7.52-10.11 7.57-10.18 7.62-10.25 7.62-10.35L7.62-10.35Q7.62-10.64 7.59-10.94 7.57-11.23 7.57-11.52L7.57-11.52Q7.57-12.11 7.59-12.7 7.62-13.28 7.62-13.87L7.62-13.87Q7.62-14.11 7.59-14.38 7.57-14.65 7.57-14.89L7.57-14.89Q7.52-15.33 7.54-15.82 7.57-16.31 7.57-16.8L7.57-16.8Q7.57-19.14 7.5-21.44 7.42-23.73 7.42-26.07L7.42-26.07Q7.42-27.2 7.54-28.37 7.67-29.54 7.67-30.71L7.67-30.71Q7.67-30.86 7.57-31.1 7.47-31.35 7.37-31.45L7.37-31.45Q7.13-31.45 6.91-31.47 6.69-31.49 6.45-31.49L6.45-31.49Q5.91-31.49 5.42-31.35L5.42-31.35Q4.49-31.3 3.64-31.23 2.78-31.15 1.9-31.1L1.9-31.1Q1.32-31.15 1.2-31.13 1.07-31.1 0.93-31.1L0.93-31.1Q0.54-31.1 0.34-31.3L0.34-31.3 0.34-31.93Q0.05-32.52 0.1-32.57 0.15-32.62 0.15-32.71L0.15-32.71Q0.15-32.86-0.12-33.03-0.39-33.2-0.39-33.59L-0.39-33.59Q-0.44-33.98-0.59-34.18-0.73-34.38-0.73-34.57L-0.73-34.57Q-0.73-34.91-0.59-35.35L-0.59-35.35Q-0.15-35.6 0.27-35.69 0.68-35.79 1.22-35.94L1.22-35.94Q1.51-36.04 1.76-36.13 2-36.23 2.29-36.28L2.29-36.28Q2.64-36.33 2.98-36.33 3.32-36.33 3.66-36.38L3.66-36.38Q4.39-36.52 5.2-36.62 6.01-36.72 6.74-36.72L6.74-36.72Q7.42-36.72 8.11-36.55 8.79-36.38 9.33-36.38L9.33-36.38Q10.11-36.38 10.82-36.28 11.52-36.18 12.3-36.18L12.3-36.18Q12.4-36.18 12.62-36.11 12.84-36.04 13.13-36.04L13.13-36.04 17.87-36.04Q18.26-35.94 18.43-35.99 18.6-36.04 18.75-36.04L18.75-36.04Q19.14-36.04 19.48-35.99 19.82-35.94 20.21-35.94L20.21-35.94Q20.56-35.94 20.75-35.99L20.75-35.99Q21.14-35.94 21.48-35.77 21.83-35.6 22.27-35.6L22.27-35.6Q22.46-35.45 22.56-35.23 22.66-35.01 22.9-34.91ZM42.33-6.84L42.33-6.84Q42.72-6.2 42.92-5.62 43.11-5.03 43.11-4.79L43.11-4.79Q43.11-4.44 42.99-4.22 42.87-4 42.67-3.76L42.67-3.76Q40.72-2.93 38.79-2.22 36.86-1.51 34.86-0.83L34.86-0.83Q34.37-0.68 33.91-0.51 33.44-0.34 32.91-0.24L32.91-0.24Q32.81-0.15 32.57-0.05 32.32 0.05 32 0.15 31.69 0.24 31.39 0.32 31.1 0.39 31 0.39L31 0.39Q30.91 0.15 30.81 0.1 30.71 0.05 30.61 0L30.61 0Q30.37 0 30.3 0.17 30.22 0.34 29.98 0.44L29.98 0.44Q29.73 0.44 29.54 0.46 29.34 0.49 29.2 0.39L29.2 0.39Q28.81 0.49 28.49 0.73 28.17 0.98 27.78 1.07L27.78 1.07Q27.05 0.88 26.88 0.9 26.71 0.93 26.51 0.98L26.51 0.98Q26.17 0.68 26.19 0.15 26.22-0.39 25.93-0.73L25.93-0.73Q25.93-1.37 25.83-1.44 25.73-1.51 25.73-1.61L25.73-1.61Q25.73-1.95 25.78-2.25 25.83-2.54 25.73-2.88L25.73-2.88Q25.93-3.71 25.88-4.49 25.83-5.27 25.93-6.05L25.93-6.05Q25.93-6.3 25.95-6.52 25.97-6.74 25.97-6.98L25.97-6.98Q25.97-7.71 26.07-7.89 26.17-8.06 26.17-8.3L26.17-8.3Q26.17-8.64 26.14-8.96 26.12-9.28 26.12-9.67L26.12-9.67Q26.12-10.35 26.14-11.01 26.17-11.67 26.17-12.4L26.17-12.4Q26.17-14.26 25.93-16.11 25.68-17.97 25.68-19.82L25.68-19.82Q25.68-22.07 25.44-24.27 25.19-26.46 25.19-28.71L25.19-28.71Q25.19-29.1 25.19-29.81 25.19-30.52 25.19-31.27 25.19-32.03 25.22-32.71 25.24-33.4 25.29-33.69L25.29-33.69Q25.29-33.74 25.58-33.84 25.88-33.94 25.97-33.94L25.97-33.94Q26.22-33.94 26.36-33.81 26.51-33.69 26.71-33.59L26.71-33.59Q27.59-33.69 27.76-33.76 27.93-33.84 28.02-33.84L28.02-33.84Q28.32-33.84 28.49-33.69 28.66-33.54 28.76-33.54L28.76-33.54Q29.59-33.74 29.66-33.59 29.73-33.45 29.98-33.45L29.98-33.45Q30.61-33.64 30.76-33.59 30.91-33.54 31.05-33.54L31.05-33.54Q31.3-33.54 31.59-33.72 31.88-33.89 32.13-33.98L32.13-33.98Q32.96-34.23 33.49-34.47L33.49-34.47Q34.23-34.91 34.59-35.06 34.96-35.21 35.35-35.4L35.35-35.4Q36.18-35.74 36.94-36.11 37.69-36.47 38.52-36.87L38.52-36.87Q38.67-36.87 38.84-36.89 39.01-36.91 39.11-37.01L39.11-37.01Q39.26-36.96 39.43-36.96 39.6-36.96 39.74-36.96L39.74-36.96Q40.23-36.77 40.38-36.72L40.38-36.72Q40.57-36.43 40.74-36.16 40.92-35.89 41.16-35.64L41.16-35.64Q41.4-35.21 41.55-35.21L41.55-35.21Q41.55-35.06 41.4-34.89 41.26-34.72 41.26-34.57L41.26-34.57Q41.65-33.89 41.89-33.3 42.14-32.71 42.14-32.47L42.14-32.47Q42.14-32.13 42.04-31.91 41.94-31.69 41.79-31.45L41.79-31.45Q39.94-30.57 38.06-29.71 36.18-28.86 34.23-28.03L34.23-28.03Q33.74-27.83 33.3-27.61 32.86-27.39 32.32-27.29L32.32-27.29Q32.22-27.2 31.88-27.12 31.54-27.05 31.35-27.05L31.35-27.05Q31.44-26.22 31.47-25.42 31.49-24.61 31.54-23.78L31.54-23.78Q31.59-23.1 31.71-22.34 31.83-21.58 31.93-20.85L31.93-20.85Q33.54-21.53 35.13-22.22 36.72-22.9 38.33-23.58L38.33-23.58Q38.62-23.54 38.94-23.49 39.26-23.44 39.55-23.34L39.55-23.34Q39.65-23.24 39.74-23.1 39.84-22.95 39.99-22.85L39.99-22.85Q39.94-22.61 40.31-22.12 40.67-21.63 40.67-21.39L40.67-21.39Q40.67-21 40.77-20.92 40.87-20.85 40.96-20.51L40.96-20.51Q41.01-20.02 40.96-19.97L40.96-19.97Q41.21-19.73 41.35-19.48 41.5-19.24 41.5-18.9L41.5-18.9Q40.82-18.07 40.13-17.8 39.45-17.53 38.77-17.24L38.77-17.24Q38.52-17.14 38.25-16.97 37.99-16.8 37.74-16.7L37.74-16.7Q37.35-16.55 36.98-16.43 36.62-16.31 36.23-16.11L36.23-16.11Q35.59-15.77 34.93-15.36 34.27-14.94 33.59-14.79L33.59-14.79Q33.05-14.65 32.88-14.48 32.71-14.31 32.32-14.01L32.32-14.01 32.32-12.7 32.32-10.25Q32.32-9.77 32.32-9.25 32.32-8.74 32.27-8.2L32.27-8.2Q32.18-7.71 32.18-7.37L32.18-7.37 32.18-6.59Q32.42-6.69 32.66-6.76 32.91-6.84 33.15-6.93L33.15-6.93Q33.35-6.98 33.52-6.98 33.69-6.98 33.88-7.08L33.88-7.08Q34.13-7.13 34.27-7.18 34.42-7.23 34.62-7.32L34.62-7.32Q35.35-7.71 35.74-7.84 36.13-7.96 36.52-8.11L36.52-8.11Q37.35-8.4 38.13-8.72 38.91-9.03 39.69-9.33L39.69-9.33Q40.18-9.23 40.38-9.47L40.38-9.47Q40.62-9.42 40.79-9.38 40.96-9.33 41.21-9.33L41.21-9.33Q41.79-8.79 41.94-8.5 42.09-8.2 42.33-7.96L42.33-7.96Q42.58-7.52 42.67-7.52L42.67-7.52Q42.67-7.42 42.53-7.2 42.38-6.98 42.33-6.84ZM81.78-0.15L81.78-0.15Q81.54 0.1 81.25 0.15 80.95 0.2 80.66 0.2L80.66 0.2Q79.93 0.54 79.1 0.54L79.1 0.54Q78.56 0.24 78.51 0.34 78.46 0.44 78.32 0.54L78.32 0.54Q77.58 0.88 77 0.9 76.41 0.93 76.02 1.17L76.02 1.17Q75.63 0.88 75.61 0.32 75.58-0.24 75.48-0.63L75.48-0.63Q75.24-0.98 75.14-1.49 75.04-2 75-2.54 74.95-3.08 74.87-3.59 74.8-4.1 74.6-4.49L74.6-4.49Q74.56-4.74 74.58-4.93 74.6-5.13 74.51-5.37L74.51-5.37Q74.56-6.2 74.46-6.69 74.36-7.18 74.26-7.71L74.26-7.71Q74.21-8.01 74.21-8.37 74.21-8.74 73.92-8.94L73.92-8.94Q74.07-9.62 73.97-9.96 73.87-10.3 73.82-10.6L73.82-10.6Q73.77-10.99 73.77-11.45 73.77-11.91 73.68-12.3L73.68-12.3Q73.38-14.65 73.04-16.99 72.7-19.34 72.41-21.68L72.41-21.68Q72.11-21.44 71.99-20.95 71.87-20.46 71.77-20.07L71.77-20.07Q71.48-19.19 71.24-18.26 70.99-17.33 70.75-16.46L70.75-16.46Q70.65-16.06 70.58-15.55 70.5-15.04 70.36-14.65L70.36-14.65Q69.87-13.23 69.5-12.21 69.14-11.18 68.79-10.11L68.79-10.11Q68.7-9.52 68.6-8.98 68.5-8.45 68.4-7.91L68.4-7.91Q68.35-7.62 68.26-7.08 68.16-6.54 68.06-6.3L68.06-6.3Q67.96-6.05 67.89-5.96 67.82-5.86 67.87-5.62L67.87-5.62Q67.38-4.88 67.21-4 67.04-3.13 66.6-2.29L66.6-2.29Q66.6-1.71 66.16-1.27L66.16-1.27Q65.91-1.22 65.69-1.17 65.47-1.12 65.23-0.98L65.23-0.98Q64.99-1.07 64.67-1.1 64.35-1.12 64.06-1.12L64.06-1.12Q63.81-1.17 63.62-1.29 63.42-1.42 63.18-1.46L63.18-1.46Q62.93-1.76 62.64-1.98 62.35-2.2 62.06-2.44L62.06-2.44Q61.76-3.17 61.52-3.42L61.52-3.42Q61.37-3.96 61.13-4.42 60.88-4.88 60.79-5.47L60.79-5.47Q60.64-6.01 60.42-6.47 60.2-6.93 59.96-7.47L59.96-7.47Q59.86-7.81 59.74-8.13 59.61-8.45 59.47-8.79L59.47-8.79Q59.42-9.18 59.2-9.77 58.98-10.35 58.88-10.79L58.88-10.79Q58.88-10.84 58.71-11.3 58.54-11.77 58.37-12.3 58.2-12.84 58.03-13.28 57.86-13.72 57.81-13.77L57.81-13.77Q57.71-14.01 57.64-14.23 57.56-14.45 57.47-14.75L57.47-14.75Q57.27-15.38 56.98-16.04 56.68-16.7 56.39-17.29L56.39-17.29Q56.15-17.77 56.05-18.24 55.95-18.7 55.81-19.14L55.81-19.14Q55.71-19.38 55.63-19.58 55.56-19.78 55.46-20.02L55.46-20.02Q55.37-20.31 55.27-20.63 55.17-20.95 55.07-21.29L55.07-21.29Q54.83-21.19 54.85-20.87 54.88-20.56 54.83-20.31L54.83-20.31Q54.73-19.78 54.73-19.26 54.73-18.75 54.68-18.21L54.68-18.21Q54.58-17.63 54.49-17.09 54.39-16.55 54.34-16.02L54.34-16.02Q54.34-14.7 54.19-13.38L54.19-13.38Q54.1-12.21 53.95-11.01 53.8-9.81 53.75-8.54L53.75-8.54Q53.75-7.62 53.56-6.71 53.36-5.81 53.46-4.83L53.46-4.83Q53.36-4.64 53.36-4.54 53.36-4.44 53.36-4.25L53.36-4.25Q53.36-4 53.34-3.71 53.32-3.42 53.32-3.17L53.32-3.17Q53.32-2.73 53.41-2.59L53.41-2.59Q53.27-2.15 53.27-1.64 53.27-1.12 53.27-0.63L53.27-0.63Q53.17-0.44 53.14-0.24 53.12-0.05 52.97 0.15L52.97 0.15Q53.02 0.98 52.49 0.98L52.49 0.98Q52.34 0.98 52.17 0.9 52 0.83 51.9 0.68L51.9 0.68Q51.36 0.73 51.29 0.44 51.22 0.15 50.97 0.2L50.97 0.2Q50.39 0.44 50.31 0.34 50.24 0.24 50 0.29L50 0.29Q49.6-0.1 49.48-0.05 49.36 0 49.26 0L49.26 0Q48.82-0.15 48.77-0.07 48.73 0 48.58 0L48.58 0Q48.33-0.24 47.92-0.24 47.5-0.24 47.21-0.29L47.21-0.29Q47.16-0.49 47.14-0.66 47.11-0.83 47.11-1.07L47.11-1.07Q47.11-1.37 47.14-1.64 47.16-1.9 47.16-2.2L47.16-2.2Q47.16-2.44 47.14-2.71 47.11-2.98 47.11-3.32L47.11-3.32Q47.11-3.66 47.16-3.98 47.21-4.3 47.21-4.69L47.21-4.69Q47.21-4.83 47.16-4.96 47.11-5.08 47.11-5.27L47.11-5.27Q47.41-5.91 47.38-6.27 47.36-6.64 47.41-6.98L47.41-6.98Q47.5-7.81 47.58-8.62 47.65-9.42 47.75-10.25L47.75-10.25Q47.75-11.62 47.82-12.52 47.9-13.43 48.04-14.36L48.04-14.36Q48.14-14.79 48.21-15.19 48.29-15.58 48.38-16.02L48.38-16.02Q48.48-16.75 48.51-17.55 48.53-18.36 48.63-19.14L48.63-19.14Q48.73-20.36 48.87-21.56 49.02-22.75 49.12-23.93L49.12-23.93Q49.21-24.85 49.34-25.76 49.46-26.66 49.46-27.49L49.46-27.49Q49.46-27.93 49.58-28.61 49.7-29.3 49.75-29.79L49.75-29.79Q49.85-30.96 49.92-32.08 50-33.2 50-34.33L50-34.33 50-34.86Q50-34.96 50.09-35.06 50.19-35.16 50.19-35.4L50.19-35.4Q50.19-35.84 50.41-36.01 50.63-36.18 50.78-36.57L50.78-36.57Q51.02-36.57 51.34-36.52 51.66-36.47 51.8-36.23L51.8-36.23Q52.14-36.33 52.49-36.33 52.83-36.33 53.07-36.57L53.07-36.57Q53.36-36.57 53.51-36.43 53.66-36.28 53.9-36.18L53.9-36.18Q54.1-36.28 54.29-36.35 54.49-36.43 54.68-36.52L54.68-36.52Q54.83-36.43 54.9-36.3 54.98-36.18 55.12-36.13L55.12-36.13Q55.85-36.33 56.1-36.18L56.1-36.18Q56.2-35.99 56.22-35.79 56.25-35.6 56.29-35.4L56.29-35.4Q56.78-34.91 56.93-34.3 57.08-33.69 57.47-33.2L57.47-33.2Q57.56-32.91 57.69-32.62 57.81-32.32 57.91-31.93L57.91-31.93 58.05-31.35Q58.25-30.86 58.54-30.18L58.54-30.18Q58.78-29.25 58.98-28.27 59.17-27.29 59.61-26.46L59.61-26.46Q59.66-26.17 59.79-25.76 59.91-25.34 60-25.05L60-25.05Q60.35-24.22 60.71-23.41 61.08-22.61 61.37-21.68L61.37-21.68Q61.66-20.75 61.88-19.78 62.1-18.8 62.45-17.87L62.45-17.87Q62.74-16.99 62.89-16.6 63.03-16.21 63.28-15.82L63.28-15.82Q63.28-15.67 63.35-15.33 63.42-14.99 63.57-14.62 63.72-14.26 63.86-13.94 64.01-13.62 64.16-13.57L64.16-13.57Q64.3-13.67 64.33-13.87 64.35-14.06 64.5-14.21L64.5-14.21Q64.55-14.75 64.67-15.53 64.79-16.31 65.03-16.8L65.03-16.8Q65.03-17.04 65.16-17.7 65.28-18.36 65.47-19.12 65.67-19.87 65.84-20.51 66.01-21.14 66.16-21.29L66.16-21.29Q66.25-21.92 66.33-22.07 66.4-22.22 66.5-22.31L66.5-22.31Q66.55-22.71 66.69-23.05 66.84-23.39 66.89-23.78L66.89-23.78Q66.99-24.61 67.13-25.15 67.28-25.68 67.52-26.46L67.52-26.46Q67.72-27.15 67.89-27.86 68.06-28.56 68.31-29.25L68.31-29.25Q68.89-31.1 69.36-32.54 69.82-33.98 70.5-35.35L70.5-35.35Q70.65-35.79 70.75-35.89 70.84-35.99 70.94-36.08L70.94-36.08Q71.33-36.23 71.75-36.23 72.16-36.23 72.6-36.18L72.6-36.18Q73.09-36.38 73.33-36.62L73.33-36.62Q73.53-36.38 73.92-36.38L73.92-36.38Q74.41-36.38 74.6-36.67L74.6-36.67Q74.8-36.57 74.92-36.62 75.04-36.67 75.29-36.57L75.29-36.57Q75.39-36.67 75.53-36.79 75.68-36.91 75.83-36.91L75.83-36.91Q76.22-36.43 76.44-36.16 76.66-35.89 76.75-35.55L76.75-35.55Q76.9-35.11 76.92-34.59 76.95-34.08 77.19-33.64L77.19-33.64Q77.14-33.01 77.27-31.71 77.39-30.42 77.56-28.98 77.73-27.54 77.92-26.32 78.12-25.1 78.27-24.8L78.27-24.8Q78.22-24.17 78.32-23.73 78.41-23.29 78.41-22.85L78.41-22.85Q78.41-22.71 78.46-22.24 78.51-21.78 78.56-21.26 78.61-20.75 78.68-20.29 78.75-19.82 78.8-19.63L78.8-19.63Q78.8-18.75 79.1-18.26L79.1-18.26Q79.34-17.04 79.51-15.82 79.68-14.6 79.83-13.33L79.83-13.33Q79.93-12.7 79.95-12.11 79.98-11.52 80.07-10.89L80.07-10.89Q80.12-10.64 80.2-10.4 80.27-10.16 80.32-9.91L80.32-9.91Q80.41-9.42 80.46-8.98 80.51-8.54 80.61-8.11L80.61-8.11Q80.66-7.86 80.76-7.59 80.85-7.32 80.76-7.03L80.76-7.03Q80.85-6.69 80.83-6.3 80.81-5.91 81-5.62L81-5.62Q81-4.59 81.15-3.81L81.15-3.81Q81.2-3.22 81.44-2.64L81.44-2.64Q81.54-2.05 81.61-1.42 81.68-0.78 81.78-0.15ZM90.18-35.5L90.18-35.5Q90.37-35.55 90.52-35.64 90.67-35.74 90.86-35.74L90.86-35.74Q91.01-35.69 91.08-35.55 91.15-35.4 91.3-35.3L91.3-35.3Q91.45-35.4 91.57-35.5 91.69-35.6 91.84-35.64L91.84-35.64Q92.33-35.5 92.38-35.16L92.38-35.16Q92.62-35.06 92.81-34.94 93.01-34.81 93.25-34.77L93.25-34.77Q93.35-34.57 93.5-34.47 93.64-34.38 93.84-34.18L93.84-34.18Q94.33-34.08 95.13-33.64 95.94-33.2 96.43-32.96L96.43-32.96Q96.92-32.71 97.4-32.47 97.89-32.23 98.33-31.93L98.33-31.93Q98.77-31.69 99.21-31.37 99.65-31.05 100.14-30.86L100.14-30.86Q100.58-30.32 101.26-30.18 101.95-30.03 102.48-29.64L102.48-29.64Q102.92-29.39 103.31-29.13 103.7-28.86 104.09-28.61L104.09-28.61Q104.24-28.37 104.46-28.22 104.68-28.08 104.88-27.83L104.88-27.83Q105.85-27.29 106-27L106-27Q106.14-26.9 106.44-26.71 106.73-26.51 107.02-26.29 107.32-26.07 107.56-25.85 107.81-25.63 107.85-25.44L107.85-25.44Q107.66-25 107.66-24.73 107.66-24.46 107.46-24.27L107.46-24.27Q107.76-23.88 107.76-23.54L107.76-23.54Q107.51-22.95 106.93-22.56L106.93-22.56Q106.78-22.17 106.46-21.95 106.14-21.73 106.05-21.34L106.05-21.34Q105.66-21.09 105.58-20.95 105.51-20.8 105.41-20.65L105.41-20.65Q104.48-19.68 103.68-18.97 102.87-18.26 102.19-17.43L102.19-17.43Q101.7-17.19 101.36-16.82 101.02-16.46 100.72-16.02L100.72-16.02Q100.33-15.63 99.97-15.26 99.6-14.89 99.21-14.55L99.21-14.55Q99.11-14.36 98.89-14.23 98.67-14.11 98.58-13.87L98.58-13.87Q98.04-13.62 97.7-13.18 97.36-12.74 96.87-12.45L96.87-12.45 96.53-11.96Q96.38-11.87 96.11-11.65 95.84-11.43 95.57-11.16 95.31-10.89 95.11-10.64 94.91-10.4 94.87-10.25L94.87-10.25Q94.72-10.21 94.4-9.96 94.08-9.72 93.77-9.42 93.45-9.13 93.18-8.84 92.91-8.54 92.86-8.45L92.86-8.45 92.38-8.11Q92.42-6.79 92.45-5.44 92.47-4.1 92.47-2.78L92.47-2.78 92.47-1.12 92.13-0.68Q91.89-0.68 91.74-0.78 91.59-0.88 91.4-0.88L91.4-0.88Q91.2-0.88 91.03-0.68 90.86-0.49 90.72-0.39L90.72-0.39Q90.37-0.34 90.15-0.22 89.93-0.1 89.69 0L89.69 0Q89.4-0.15 89.1-0.15L89.1-0.15Q88.47 0 88.49-0.1 88.52-0.2 88.27-0.2L88.27-0.2Q87.88 0.2 87.79 0.2L87.79 0.2Q87.59 0.2 87.42 0.24 87.25 0.29 87.05 0.29L87.05 0.29Q86.86-0.1 86.74-0.51 86.61-0.93 86.27-1.32L86.27-1.32Q86.42-1.81 86.22-2L86.22-2Q86.52-2.54 86.47-3.22 86.42-3.91 86.42-4.49L86.42-4.49Q86.42-4.83 86.44-5.15 86.47-5.47 86.47-5.76L86.47-5.76Q86.47-6.35 86.37-6.96 86.27-7.57 86.27-8.2L86.27-8.2Q86.27-9.67 86.37-11.16 86.47-12.65 86.47-14.11L86.47-14.11Q86.47-14.94 86.39-15.82 86.32-16.7 86.32-17.53L86.32-17.53Q86.32-18.07 86.37-18.53 86.42-18.99 86.47-19.43L86.47-19.43Q86.47-21.68 86.54-23.75 86.61-25.83 86.61-27.88L86.61-27.88Q86.61-28.56 86.59-29.17 86.56-29.79 86.56-30.47L86.56-30.47Q86.56-30.81 86.61-31.15 86.66-31.49 86.66-31.84L86.66-31.84Q86.81-33.35 86.81-34.86L86.81-34.86 86.76-35.64Q86.96-35.94 87.35-35.94L87.35-35.94Q87.88-35.94 88.18-35.6L88.18-35.6Q88.52-35.64 88.84-35.72 89.15-35.79 89.45-35.79L89.45-35.79Q89.89-35.79 90.18-35.5ZM93.16-27.88L93.06-27.73Q93.06-27.49 93.01-27.37 92.96-27.25 92.91-27.15L92.91-27.15Q92.91-27 92.94-26.83 92.96-26.66 92.96-26.46L92.96-26.46Q92.96-25.34 92.94-24.24 92.91-23.14 92.91-22.07L92.91-22.07 92.81-19.48Q92.81-19.24 92.86-18.95 92.91-18.65 92.91-18.41L92.91-18.41Q92.91-18.16 92.86-17.92 92.81-17.68 92.81-17.43L92.81-17.43Q92.81-16.8 92.96-16.16L92.96-16.16Q93.21-16.26 93.3-16.48 93.4-16.7 93.55-16.85L93.55-16.85Q94.67-17.87 95.65-18.99 96.62-20.12 97.65-21.24L97.65-21.24Q98.53-22.17 99.16-22.75 99.8-23.34 100.14-24.17L100.14-24.17Q99.31-24.71 98.43-25.27 97.55-25.83 96.57-26.22L96.57-26.22Q96.53-26.32 96.31-26.46 96.09-26.61 95.84-26.73 95.6-26.86 95.35-26.95 95.11-27.05 95.01-27.05L95.01-27.05Q94.57-27.44 94.08-27.54L94.08-27.54Q93.74-27.54 93.5-27.66 93.25-27.78 93.16-27.88L93.16-27.88ZM130.61-5.86L130.61-5.86Q130.12-5.81 130.02-5.91L130.02-5.91Q129.82-5.81 129.65-5.71 129.48-5.62 129.29-5.47L129.29-5.47Q128.6-5.22 127.94-4.83 127.28-4.44 126.6-4.1L126.6-4.1Q126.21-3.91 125.84-3.78 125.48-3.66 125.09-3.47L125.09-3.47Q124.5-3.17 123.92-2.86 123.33-2.54 122.7-2.29L122.7-2.29Q122.35-2.2 122.04-2.1 121.72-2 121.38-1.9L121.38-1.9Q120.99-1.76 120.67-1.59 120.35-1.42 120.01-1.27L120.01-1.27Q119.77-1.17 119.5-1.1 119.23-1.03 118.94-0.88L118.94-0.88Q118.69-0.78 118.52-0.63 118.35-0.49 118.11-0.39L118.11-0.39Q117.71-0.24 117.3-0.1 116.88 0.05 116.49 0.24L116.49 0.24Q116.1 0.44 115.93 0.61 115.76 0.78 115.27 0.93L115.27 0.93Q114.78 1.22 114.74 1.25 114.69 1.27 114.59 1.27L114.59 1.27Q114.44 1.37 114.32 1.44 114.2 1.51 114.05 1.61L114.05 1.61Q113.76 1.61 113.47 1.66 113.17 1.71 112.88 1.71L112.88 1.71Q112.54 1.51 112.42 1.32 112.29 1.12 112.29 0.78L112.29 0.78Q112.1 0.54 111.93 0.24 111.76-0.05 111.56-0.29L111.56-0.29Q111.22-0.1 111.15-0.32 111.07-0.54 111.03-0.81 110.98-1.07 110.93-1.34 110.88-1.61 110.83-1.71L110.83-1.71Q110.59-2.64 110.59-3.08L110.59-3.08Q110.59-3.32 110.68-3.39 110.78-3.47 110.78-3.61L110.78-3.61Q110.83-4.1 110.88-4.74 110.93-5.37 110.93-6.05 110.93-6.74 110.93-7.42 110.93-8.11 110.93-8.64L110.93-8.64Q110.93-10.84 110.88-12.92 110.83-14.99 110.83-17.09L110.83-17.09Q110.83-18.07 110.88-19.04 110.93-20.02 110.93-21L110.93-21Q110.93-23.39 111-25.73 111.07-28.08 111.07-30.47L111.07-30.47Q111.07-31.45 110.98-32.45 110.88-33.45 110.83-34.47L110.83-34.47Q110.78-35.01 110.88-35.33 110.98-35.64 110.93-35.99L110.93-35.99Q111.07-36.04 111.46-36.04 111.86-36.04 112.27-36.06 112.69-36.08 113.05-36.11 113.42-36.13 113.52-36.18L113.52-36.18Q113.86-35.94 114.2-35.94L114.2-35.94Q114.54-35.94 114.83-36.23L114.83-36.23Q115.08-36.13 115.1-36.08 115.13-36.04 115.37-36.04L115.37-36.04Q115.81-36.08 116.05-36.11 116.3-36.13 116.49-36.13L116.49-36.13Q117.03-35.74 117.15-35.18 117.28-34.62 117.32-34.01 117.37-33.4 117.4-32.79 117.42-32.18 117.42-31.79L117.42-31.79Q117.42-31.49 117.47-31.18 117.52-30.86 117.52-30.52L117.52-30.52Q117.52-30.27 117.49-30.03 117.47-29.79 117.47-29.54L117.47-29.54Q117.47-28.13 117.49-26.66 117.52-25.2 117.52-23.78L117.52-23.78Q117.52-21.24 117.45-18.68 117.37-16.11 117.37-13.57L117.37-13.57Q117.37-13.04 117.42-12.5 117.47-11.96 117.47-11.43L117.47-11.43Q117.47-11.13 117.45-10.84 117.42-10.55 117.42-10.25L117.42-10.25Q117.42-8.45 117.57-6.64L117.57-6.64Q117.76-6.69 118.4-6.91 119.03-7.13 119.72-7.4 120.4-7.67 120.99-7.93 121.57-8.2 121.72-8.35L121.72-8.35Q121.91-8.35 122.26-8.5 122.6-8.64 122.99-8.86 123.38-9.08 123.74-9.28 124.11-9.47 124.26-9.62L124.26-9.62Q124.21-10.6 124.21-11.6 124.21-12.6 124.21-13.57L124.21-13.57Q124.21-16.26 124.28-18.95 124.36-21.63 124.36-24.41L124.36-24.41Q124.36-26.12 124.31-27.83 124.26-29.54 124.26-31.25L124.26-31.25Q124.26-31.79 124.28-32.35 124.31-32.91 124.31-33.45L124.31-33.45Q124.31-34.28 124.28-35.08 124.26-35.89 124.36-36.72L124.36-36.72Q124.84-36.96 124.89-36.96L124.89-36.96Q125.19-36.96 125.31-36.96 125.43-36.96 125.53-36.87L125.53-36.87Q125.67-36.82 125.8-36.84 125.92-36.87 126.06-36.87L126.06-36.87Q126.31-36.87 126.55-36.77 126.8-36.67 127.04-36.67L127.04-36.67Q127.43-36.72 127.46-36.57 127.48-36.43 127.63-36.43L127.63-36.43Q128.02-36.57 128.16-36.43L128.16-36.43Q128.31-36.33 128.7-36.16 129.09-35.99 129.53-35.79 129.97-35.6 130.31-35.42 130.65-35.25 130.65-35.11L130.65-35.11Q130.8-34.33 130.75-33.45 130.7-32.57 130.7-31.79L130.7-31.79Q130.7-31.1 130.75-30.42 130.8-29.74 130.8-29.05L130.8-29.05Q130.8-28.66 130.8-28.27 130.8-27.88 130.85-27.54L130.85-27.54Q130.9-27.29 130.9-27.12 130.9-26.95 130.9-26.76L130.9-26.76Q130.9-26.51 131-26.12L131-26.12Q130.95-25.88 130.95-25.61 130.95-25.34 130.95-25.1L130.95-25.1Q130.95-24.41 131-23.68 131.04-22.95 131.04-22.22L131.04-22.22Q131.04-21.73 130.97-21.29 130.9-20.85 130.9-20.41L130.9-20.41 130.95-19.48Q130.95-18.99 131-18.51 131.04-18.02 131.04-17.48L131.04-17.48Q131.04-17.24 131.02-16.99 131-16.75 130.95-16.5L130.95-16.5Q130.9-16.26 130.9-15.97 130.9-15.67 130.9-15.43L130.9-15.43Q130.9-14.75 130.95-14.06 131-13.38 131-12.7L131-12.7Q131-12.26 130.97-11.84 130.95-11.43 130.95-10.99L130.95-10.99Q130.95-10.11 131.02-9.18 131.09-8.25 131.09-7.37L131.09-7.37Q131.09-6.98 131-6.54 130.9-6.1 130.61-5.86ZM147.5-36.33L147.5-36.33Q147.84-35.69 147.84-34.86L147.84-34.86Q147.84-34.13 147.55-33.3 147.25-32.47 146.62-32.03L146.62-32.03Q146.18-31.05 145.76-30.44 145.35-29.83 144.96-29.25L144.96-29.25Q144.81-28.91 144.67-28.59 144.52-28.27 144.27-27.93L144.27-27.93Q144.13-27.69 143.64-26.95 143.15-26.22 142.64-25.42 142.13-24.61 141.74-23.88 141.34-23.14 141.34-22.95L141.34-22.95Q141.34-22.75 141.81-22.46 142.27-22.17 142.42-22.02L142.42-22.02Q142.66-21.78 142.88-21.53 143.1-21.29 143.35-21.04L143.35-21.04Q143.88-20.61 144.4-20.17 144.91-19.73 145.45-19.19L145.45-19.19Q146.47-18.26 147.59-17.43 148.72-16.6 149.6-15.48L149.6-15.48Q150.43-15.23 150.67-14.31 150.92-13.38 150.82-12.55L150.82-12.55Q150.92-12.4 150.99-12.26 151.06-12.11 151.16-11.91L151.16-11.91Q151.16-11.13 150.94-10.77 150.72-10.4 150.48-9.86L150.48-9.86Q150.23-9.38 150.16-8.89 150.09-8.4 149.84-8.01L149.84-8.01Q149.74-7.86 149.57-7.76 149.4-7.67 149.3-7.47L149.3-7.47Q149.11-7.13 148.99-6.67 148.86-6.2 148.67-5.81L148.67-5.81Q148.52-5.42 148.3-5.03 148.08-4.64 147.94-4.25L147.94-4.25Q147.84-4 147.77-3.66 147.69-3.32 147.3-3.17L147.3-3.17Q147.06-2.29 146.64-1.46 146.23-0.63 145.98 0.24L145.98 0.24Q145.54 0.39 144.88 0.81 144.23 1.22 143.84 1.22L143.84 1.22Q143.69 1.22 143.59 1.07 143.49 0.93 143.3 0.83L143.3 0.83Q143.2 0.78 143.03 0.83 142.86 0.88 142.76 0.88L142.76 0.88Q142.52 0.88 142.39 0.68 142.27 0.49 142.08 0.39L142.08 0.39Q141.93 0.44 141.78 0.49 141.64 0.54 141.49 0.54L141.49 0.54Q141.15 0.54 141.1 0.37 141.05 0.2 140.81 0.05L140.81 0.05Q140.22-0.24 140.12-0.49 140.03-0.73 139.83-0.83L139.83-0.83Q140.17-2.1 140.76-3.25 141.34-4.39 141.88-5.57L141.88-5.57Q142.03-5.96 142.25-6.3 142.47-6.64 142.66-7.03L142.66-7.03Q142.81-7.37 143.1-7.91 143.4-8.45 143.64-9.03 143.88-9.62 144.08-10.13 144.27-10.64 144.27-10.99L144.27-10.99Q144.27-11.67 143.88-12.01L143.88-12.01Q142.47-13.18 141.22-14.4 139.98-15.63 138.61-16.89L138.61-16.89Q137.73-17.68 136.71-18.51L136.71-18.51Q136.51-18.65 136.41-18.95 136.32-19.24 136.12-19.48L136.12-19.48Q136.02-19.68 135.83-19.78 135.63-19.87 135.53-20.07L135.53-20.07Q135.39-20.26 135.34-20.53 135.29-20.8 135.05-20.95L135.05-20.95Q134.8-21.19 134.46-21.24 134.12-21.29 133.87-21.53L133.87-21.53Q134.02-21.68 134-21.85 133.97-22.02 133.97-22.17L133.97-22.17Q133.97-22.51 134.26-22.66 134.56-22.8 134.56-23.19L134.56-23.19Q134.75-23.58 134.85-23.68L134.85-23.68Q135.39-25 136.07-26.22 136.76-27.44 137.49-28.66L137.49-28.66Q137.73-29.05 137.95-29.42 138.17-29.79 138.42-30.18L138.42-30.18Q138.56-30.52 138.68-30.79 138.81-31.05 139.05-31.3L139.05-31.3Q139.73-32.08 140.2-32.76 140.66-33.45 140.91-34.42L140.91-34.42Q140.95-34.67 141.1-35.11 141.25-35.55 141.47-35.99 141.69-36.43 141.93-36.77 142.18-37.11 142.47-37.11L142.47-37.11Q142.71-37.11 143.18-36.91 143.64-36.72 143.98-36.62L143.98-36.62Q144.27-36.52 144.59-36.45 144.91-36.38 145.2-36.38L145.2-36.38Q145.4-36.38 145.59-36.5 145.79-36.62 146.03-36.62L146.03-36.62Q146.42-36.62 146.76-36.5 147.11-36.38 147.5-36.33Z" opacity="1" transform="matrix(1,0,0,1,0,0)" fill="#ba3b0a" class="wordmark-text-0" data-fill-palette-color="primary" id="text-0"></path></svg></g></svg></g></svg></g></svg></g><g transform="matrix(1,0,0,1,84.38216450110461,0)"><svg viewBox="0 0 226.75567099779076 226.75567099779076" height="226.75567099779076" width="226.75567099779076"><g><svg></svg></g><g id="icon-0"><svg viewBox="0 0 226.75567099779076 226.75567099779076" height="226.75567099779076" width="226.75567099779076"><g><path d="M0 113.378c0-62.617 50.761-113.378 113.378-113.378 62.617 0 113.378 50.761 113.378 113.378 0 62.617-50.761 113.378-113.378 113.378-62.617 0-113.378-50.761-113.378-113.378zM113.378 217.641c57.583 0 104.263-46.68 104.263-104.263 0-57.583-46.68-104.263-104.263-104.263-57.583 0-104.263 46.68-104.263 104.263 0 57.583 46.68 104.263 104.263 104.263z" data-fill-palette-color="accent" fill="#e8772e" stroke="transparent"></path><ellipse rx="112.24405714390643" ry="112.24405714390643" cx="113.37783549889538" cy="113.37783549889538" fill="#e8772e" stroke="transparent" stroke-width="0" fill-opacity="1" data-fill-palette-color="accent"></ellipse></g><g transform="matrix(1,0,0,1,68.86100451684021,48.29474346028155)"><svg viewBox="0 0 89.03366196411034 130.16618407722765" height="130.16618407722765" width="89.03366196411034"><g><svg xmlns="http://www.w3.org/2000/svg" xmlns:xlink="http://www.w3.org/1999/xlink" version="1.1" x="0" y="0" viewBox="14.899999618530273 7 34.19999694824219 50" enable-background="new 0 0 64 64" xml:space="preserve" height="130.16618407722765" width="89.03366196411034" class="icon-s-0" data-fill-palette-color="quaternary" id="s-0"><g fill="#ffffff" data-fill-palette-color="quaternary"><polygon points="46.2,31.6 49.1,29.1 46.7,25.9 48.4,22.3 44.7,20.5 44.8,15.9 44.7,16.3 46.2,7 40,7 41.6,16.6 41.4,17.4    37.7,9.8 33.6,12.7 38.7,17.8 40.9,21.2 38.3,23.8 39.7,27.2 36,28.2 36.2,31.8 32.7,31.7 32,35.2 28.6,34.2 26.3,38.1 21.9,37.7    20.2,41.7 15.8,42.8 16.8,47.6 14.9,52.2 19.6,53.6 23.2,57 26.3,54.2 30,55.9 32.4,52.5 36.4,53.4 38.1,49.2 42.4,47.8 42,43.3    45.8,40.8 44.7,37.2 47.9,35.1  " fill="#ffffff" data-fill-palette-color="quaternary"></polygon></g></svg></g></svg></g></svg></g></svg></g><g></g></svg></g><defs></defs></svg><rect width="260.3445075680629" height="247.2" fill="none" stroke="none" visibility="hidden"></rect></g></svg></g></svg>